{{/*
  Decorative leaf icon — palmate silhouette (lobes radiating from a single
  point at the base, like fingers from a palm). Inline SVG so it inherits
  the row-table text color and scales with font-size. Pure geometry, no
  Wikimedia-derived paths.

  Per docs/PORT-MAP-CONVENTIONS.md §A: this file is original work, not a
  derivative of any upstream MediaWiki asset, so no GPL header.
*/}}
<svg xmlns="http://www.w3.org/2000/svg" viewBox="0 0 24 24" role="img" aria-label="Palmate leaf">
  <title>Palmate leaf</title>
  <g fill="currentColor">
    <path d="M12 22c-.4 0-.8-.3-.9-.7-.4-1.4-1.1-4.2-1.1-6.8 0-3.3 1-7.4 1.3-8.7.1-.4.5-.7.9-.7s.8.3.9.7c.3 1.3 1.3 5.4 1.3 8.7 0 2.6-.7 5.4-1.1 6.8-.3.4-.7.7-1.3.7z" />
    <path d="M9.5 19.5c-.4 0-.8-.3-.9-.7-.5-1.7-1.1-4.1-1.1-6 0-2.2.7-4.7 1-5.7.1-.4.5-.7.9-.7s.8.3.9.7c.2.7.6 2.1.6 3.5 0 1.6-.4 3.7-.8 5.2-.2 1.1-.2 3.7-.6 3.7z" opacity="0.85" />
    <path d="M14.5 19.5c-.4 0-.4-2.6-.6-3.7-.4-1.5-.8-3.6-.8-5.2 0-1.4.4-2.8.6-3.5.1-.4.5-.7.9-.7s.8.3.9.7c.3 1 1 3.5 1 5.7 0 1.9-.6 4.3-1.1 6-.1.4-.5.7-.9.7z" opacity="0.85" />
  </g>
  <line x1="12" y1="22" x2="12" y2="18" stroke="currentColor" stroke-width="0.6" />
</svg>
